# xmcd
#
# Track frame offsets: 
#        150
#        18409
#        37288
#        51684
#        74023
#        95171
#        105251
#        124448
#        126773
#        142950
#        164589
#        174410
#        192482
#
# Disc length: 3140 seconds
#
# Revision: 0
# Processed by: cddbd v1.5.2PL0 Copyright (c) Steve Scherf et al.
# Submitted via: ExactAudioCopy v1.3
#
DISCID=cc0c420d
DTITLE=Paul Oscher - Cool Cat
DYEAR=2019
DGENRE=Blues
TTITLE0=Money Makin' Woman
TTITLE1=Blues And Trouble
TTITLE2=Hide Out Baby
TTITLE3=Work That Stuff
TTITLE4=Rollin' and Tumblin'
TTITLE5=Cool Cat (R&B) Prologue
TTITLE6=Cool Cat (Jazz Quartet)
TTITLE7=Mississippi Poem
TTITLE8=Ain't That A Man (Dedicated To Mr. Cotton)
TTITLE9=Dirty Dealin' Mama
TTITLE10=On The Edge (Jazz Quartet)
TTITLE11=Poor Man Blues
TTITLE12=Cool Cat (R&B) Long Version
EXTD=
EXTT0=
EXTT1=
EXTT2=
EXTT3=
EXTT4=
EXTT5=
EXTT6=
EXTT7=
EXTT8=
EXTT9=
EXTT10=
EXTT11=
EXTT12=
PLAYORDER=
